<svg width="20" height="20" viewBox="0 0 20 20" fill="none" xmlns="http://www.w3.org/2000/svg">
<path d="M4.58333 17.5C4.0308 17.5 3.50089 17.2805 3.11019 16.8898C2.71949 16.4991 2.5 15.9692 2.5 15.4167V1.25C2.5 0.918479 2.3683 0.600537 2.13388 0.366117C1.89946 0.131696 1.58152 0 1.25 0C0.918479 0 0.600537 0.131696 0.366117 0.366117C0.131696 0.600537 0 0.918479 0 1.25L0 15.4167C0 16.6322 0.482886 17.798 1.34243 18.6576C2.20197 19.5171 3.36776 20 4.58333 20H18.75C19.0815 20 19.3995 19.8683 19.6339 19.6339C19.8683 19.3995 20 19.0815 20 18.75C20 18.4185 19.8683 18.1005 19.6339 17.8661C19.3995 17.6317 19.0815 17.5 18.75 17.5H4.58333Z" fill="white"/>
<path d="M16.5 15C16.8978 15 17.2794 14.8595 17.5607 14.6095C17.842 14.3594 18 14.0203 18 13.6667V8.33333C18 7.97971 17.842 7.64057 17.5607 7.39052C17.2794 7.14048 16.8978 7 16.5 7C16.1022 7 15.7206 7.14048 15.4393 7.39052C15.158 7.64057 15 7.97971 15 8.33333V13.6667C15 14.0203 15.158 14.3594 15.4393 14.6095C15.7206 14.8595 16.1022 15 16.5 15Z" fill="white"/>
<path d="M6 15C6.26522 15 6.51957 14.8595 6.70711 14.6095C6.89464 14.3594 7 14.0203 7 13.6667V8.33333C7 7.97971 6.89464 7.64057 6.70711 7.39052C6.51957 7.14048 6.26522 7 6 7C5.73478 7 5.48043 7.14048 5.29289 7.39052C5.10536 7.64057 5 7.97971 5 8.33333V13.6667C5 14.0203 5.10536 14.3594 5.29289 14.6095C5.48043 14.8595 5.73478 15 6 15Z" fill="white"/>
<path d="M11.5 15C11.8978 15 12.2794 14.8645 12.5607 14.6234C12.842 14.3823 13 14.0553 13 13.7143V4.28571C13 3.94472 12.842 3.6177 12.5607 3.37658C12.2794 3.13546 11.8978 3 11.5 3C11.1022 3 10.7206 3.13546 10.4393 3.37658C10.158 3.6177 10 3.94472 10 4.28571V13.7143C10 14.0553 10.158 14.3823 10.4393 14.6234C10.7206 14.8645 11.1022 15 11.5 15Z" fill="white"/>
</svg>
