<svg width="20" height="20" viewBox="0 0 20 20" fill="none" xmlns="http://www.w3.org/2000/svg">
<g clip-path="url(#clip0_2_16)">
<path d="M19.1833 7.32497C18.6917 6.87497 18.05 6.64997 17.375 6.67497C16.7083 6.70831 16.0917 6.99997 15.6333 7.49164L12.95 10.4333C12.4917 9.67497 11.6583 9.16664 10.7083 9.16664H3.33333C1.49167 9.16664 0 10.6583 0 12.5V16.6666C0 18.5083 1.49167 20 3.33333 20H7.46667C9.84167 20 12.1083 18.9833 13.6917 17.2083L19.3667 10.8416C20.275 9.81664 20.1917 8.24164 19.1833 7.31664V7.32497ZM18.125 9.74164L12.45 16.1083C11.1833 17.525 9.375 18.3416 7.475 18.3416H3.33333C2.41667 18.3416 1.66667 17.5916 1.66667 16.675V12.5083C1.66667 11.5916 2.41667 10.8416 3.33333 10.8416H10.7167C11.2417 10.8416 11.6667 11.2666 11.6667 11.7916C11.6667 12.2583 11.3167 12.6666 10.85 12.7333L6.55 13.35C6.09167 13.4166 5.775 13.8333 5.84167 14.2916C5.90833 14.75 6.33333 15.0666 6.78333 15L11.0833 14.3833C12.0667 14.2416 12.8583 13.5583 13.175 12.6666L16.8667 8.61664C17.0167 8.44997 17.225 8.34997 17.45 8.34164C17.675 8.34164 17.8917 8.40831 18.0583 8.55831C18.4 8.86664 18.425 9.39997 18.1167 9.74164H18.125Z" fill="white"/>
<path d="M7.50005 8.33337H7.81672C9.02505 8.33337 10.0001 7.35003 10.0001 6.15003C10.0001 5.07503 9.23339 4.1667 8.17505 3.9917L5.44172 3.53337C5.19172 3.4917 5.00839 3.27503 5.00839 3.0167C5.00839 2.73337 5.24172 2.50003 5.52505 2.50003H7.72505C8.02505 2.50003 8.30005 2.65837 8.45005 2.9167C8.67505 3.3167 9.18339 3.45003 9.59172 3.2167C9.99172 2.98337 10.1251 2.47503 9.89172 2.07503C9.45005 1.30837 8.61672 0.825033 7.72505 0.825033H7.50005C7.50005 0.366699 7.12505 -0.00830078 6.66672 -0.00830078C6.20839 -0.00830078 5.83339 0.366699 5.83339 0.825033H5.51672C4.30839 0.825033 3.33339 1.80837 3.33339 3.00837C3.33339 4.08337 4.10005 4.9917 5.15839 5.1667L7.89172 5.62503C8.14172 5.6667 8.32505 5.88337 8.32505 6.1417C8.32505 6.42503 8.09172 6.65837 7.80839 6.65837H5.60839C5.30839 6.65837 5.03339 6.50003 4.88339 6.2417C4.65005 5.8417 4.14172 5.70837 3.74172 5.9417C3.34172 6.17503 3.20839 6.68337 3.44172 7.08337C3.88339 7.85003 4.71672 8.33337 5.60839 8.33337H5.83339C5.83339 8.7917 6.20839 9.1667 6.66672 9.1667C7.12505 9.1667 7.50005 8.7917 7.50005 8.33337Z" fill="white"/>
</g>
<defs>
<clipPath id="clip0_2_16">
<rect width="20" height="20" fill="white"/>
</clipPath>
</defs>
</svg>
