<svg width="18" height="18" viewBox="0 0 18 18" fill="none" xmlns="http://www.w3.org/2000/svg">
<g clip-path="url(#clip0_2_73)">
<path d="M17.2024 0.79797C16.6907 0.286996 15.9971 0 15.2739 0C14.5507 0 13.8571 0.286996 13.3454 0.79797L1.10278 13.0408C0.75219 13.3894 0.47421 13.8041 0.284923 14.2609C0.0956352 14.7176 -0.00120286 15.2074 1.1277e-05 15.7018V17.2472C1.1277e-05 17.4469 0.0793178 17.6383 0.220484 17.7795C0.361651 17.9207 0.553114 18 0.752753 18H2.29813C2.79251 18.0014 3.28224 17.9047 3.739 17.7155C4.19575 17.5264 4.61045 17.2485 4.95907 16.8979L17.2024 4.65435C17.7132 4.14262 18 3.44916 18 2.72616C18 2.00316 17.7132 1.3097 17.2024 0.79797ZM3.8947 15.8335C3.47015 16.2553 2.89653 16.4927 2.29813 16.4945H1.5055V15.7018C1.50473 15.4052 1.56282 15.1113 1.6764 14.8372C1.78997 14.5632 1.95678 14.3144 2.16716 14.1052L11.4582 4.81393L13.1896 6.54527L3.8947 15.8335ZM16.1373 3.58995L14.2509 5.47711L12.5196 3.74953L14.4067 1.86237C14.5204 1.74894 14.6553 1.659 14.8038 1.59771C14.9522 1.53641 15.1112 1.50495 15.2718 1.50513C15.4324 1.5053 15.5914 1.53711 15.7397 1.59873C15.888 1.66034 16.0227 1.75057 16.1362 1.86425C16.2496 1.97793 16.3395 2.11284 16.4008 2.26128C16.4621 2.40972 16.4936 2.56878 16.4934 2.72937C16.4932 2.88997 16.4614 3.04895 16.3998 3.19726C16.3382 3.34556 16.248 3.48028 16.1343 3.59371L16.1373 3.58995Z" fill="black"/>
</g>
<defs>
<clipPath id="clip0_2_73">
<rect width="18" height="18" fill="white"/>
</clipPath>
</defs>
</svg>
