<svg width="24" height="24" viewBox="0 0 24 24" fill="none" xmlns="http://www.w3.org/2000/svg">
<path d="M21 3H16.0909V1.5C16.0909 0.67275 15.357 0 14.4545 0H9.54545C8.643 0 7.90909 0.67275 7.90909 1.5V3H3V4.5H4.34509L5.73845 15.9982C5.87673 17.139 6.92564 18 8.17827 18H15.7906C17.0433 18 18.0922 17.1397 18.2296 15.9982L19.623 4.5H20.9992L21 3ZM9.54545 1.5H14.4545V3H9.54545V1.5ZM16.6031 15.8325C16.5573 16.2128 16.2079 16.5 15.7898 16.5H8.17827C7.761 16.5 7.41082 16.2128 7.365 15.8325L5.99127 4.5H17.9776L16.6039 15.8325H16.6031ZM8.76245 12.4072L10.8431 10.5L8.76245 8.59275L9.91936 7.53225L12 9.4395L14.0806 7.53225L15.2375 8.59275L13.1569 10.5L15.2375 12.4072L14.0806 13.4678L12 11.5605L9.91936 13.4678L8.76245 12.4072Z" fill="#FF0000"/>
</svg>
