<svg width="25" height="18" viewBox="0 0 25 18" fill="none" xmlns="http://www.w3.org/2000/svg">
<path d="M23.4375 7.29163H1.5625C0.699561 7.29163 0 7.99119 0 8.85413C0 9.71707 0.699561 10.4166 1.5625 10.4166H23.4375C24.3004 10.4166 25 9.71707 25 8.85413C25 7.99119 24.3004 7.29163 23.4375 7.29163Z" fill="white"/>
<path d="M1.5625 3.125H23.4375C24.3004 3.125 25 2.42544 25 1.5625C25 0.699561 24.3004 0 23.4375 0H1.5625C0.699561 0 0 0.699561 0 1.5625C0 2.42544 0.699561 3.125 1.5625 3.125Z" fill="white"/>
<path d="M23.4375 14.5833H1.5625C0.699561 14.5833 0 15.2828 0 16.1458C0 17.0087 0.699561 17.7083 1.5625 17.7083H23.4375C24.3004 17.7083 25 17.0087 25 16.1458C25 15.2828 24.3004 14.5833 23.4375 14.5833Z" fill="white"/>
</svg>
