<svg width="20" height="20" viewBox="0 0 20 20" fill="none" xmlns="http://www.w3.org/2000/svg">
<g clip-path="url(#clip0_2_14)">
<path d="M3.33333 10.8333H5.83333V12.5H3.33333V10.8333ZM7.5 12.5H10V10.8333H7.5V12.5ZM3.33333 15.8333H5.83333V14.1667H3.33333V15.8333ZM7.5 15.8333H10V14.1667H7.5V15.8333ZM3.33333 5.83333H5.83333V4.16667H3.33333V5.83333ZM7.5 5.83333H10V4.16667H7.5V5.83333ZM3.33333 9.16667H5.83333V7.5H3.33333V9.16667ZM7.5 9.16667H10V7.5H7.5V9.16667ZM20 6.66667V20H0V2.5C0 1.83696 0.263392 1.20107 0.732233 0.732233C1.20107 0.263392 1.83696 0 2.5 0L10.8333 0C11.4964 0 12.1323 0.263392 12.6011 0.732233C13.0699 1.20107 13.3333 1.83696 13.3333 2.5V4.16667H17.5C18.163 4.16667 18.7989 4.43006 19.2678 4.8989C19.7366 5.36774 20 6.00363 20 6.66667ZM11.6667 2.5C11.6667 2.27899 11.5789 2.06702 11.4226 1.91074C11.2663 1.75446 11.0543 1.66667 10.8333 1.66667H2.5C2.27899 1.66667 2.06702 1.75446 1.91074 1.91074C1.75446 2.06702 1.66667 2.27899 1.66667 2.5V18.3333H11.6667V2.5ZM18.3333 6.66667C18.3333 6.44565 18.2455 6.23369 18.0893 6.07741C17.933 5.92113 17.721 5.83333 17.5 5.83333H13.3333V18.3333H18.3333V6.66667ZM15 12.5H16.6667V10.8333H15V12.5ZM15 15.8333H16.6667V14.1667H15V15.8333ZM15 9.16667H16.6667V7.5H15V9.16667Z" fill="white"/>
</g>
<defs>
<clipPath id="clip0_2_14">
<rect width="20" height="20" fill="white"/>
</clipPath>
</defs>
</svg>
