<svg width="19" height="20" viewBox="0 0 19 20" fill="none" xmlns="http://www.w3.org/2000/svg">
<path d="M11.3456 4.52605C12.3477 3.68238 13.4059 2.41853 13.4059 0.82713V0H5.02723V0.82713C5.02723 2.41853 6.08546 3.68156 7.08756 4.52605C3.14537 5.91315 0 10.8553 0 14.8883C0 17.6253 2.25471 19.8511 5.02723 19.8511H13.4059C16.1785 19.8511 18.4332 17.6253 18.4332 14.8883C18.4332 10.8553 15.2878 5.91315 11.3456 4.52605ZM6.87641 1.65426H11.5543C11.1177 2.69314 9.97067 3.56493 9.22246 4.01323C8.59237 3.63275 7.33641 2.76261 6.87725 1.65426H6.87641ZM13.4059 18.1969H5.02723C3.17889 18.1969 1.67574 16.713 1.67574 14.8883C1.67574 10.6195 5.52158 5.80397 9.21491 5.80397C12.9083 5.80397 16.7574 10.6203 16.7574 14.8883C16.7574 16.713 15.2543 18.1969 13.4059 18.1969ZM7.54085 10.7527C7.54085 11.0653 7.76791 11.33 8.08044 11.3813L10.6292 11.8007C11.7528 11.9851 12.5689 12.9363 12.5689 14.0612C12.5689 15.4293 11.4411 16.5426 10.0553 16.5426V17.3697H8.37956V16.5426C6.99372 16.5426 5.86594 15.4293 5.86594 14.0612H7.54168C7.54168 14.517 7.91789 14.8883 8.37956 14.8883H10.0553C10.517 14.8883 10.8932 14.517 10.8932 14.0612C10.8932 13.7486 10.6661 13.4839 10.3536 13.4326L7.80478 13.0132C6.68119 12.8288 5.8651 11.8776 5.8651 10.7527C5.8651 9.38462 6.99288 8.2713 8.37872 8.2713V7.44417H10.0545V8.2713C11.4403 8.2713 12.5681 9.38462 12.5681 10.7527H10.8923C10.8923 10.2969 10.5161 9.92556 10.0545 9.92556H8.37872C7.91705 9.92556 7.54085 10.2969 7.54085 10.7527Z" fill="white"/>
</svg>
